<svg width="28" height="28" viewBox="0 0 28 28" fill="none" xmlns="http://www.w3.org/2000/svg">
<path d="M24.15 19.2391C23.5046 18.1234 22.7281 16.0016 22.7281 12.25V11.4734C22.7281 6.62813 18.8453 2.65781 14.0656 2.625H14C12.8523 2.62644 11.7162 2.8539 10.6565 3.29441C9.59677 3.73491 8.63419 4.37983 7.82371 5.19234C7.01322 6.00486 6.37071 6.96905 5.93286 8.02987C5.49501 9.09069 5.27039 10.2274 5.27183 11.375V12.25C5.27183 16.0016 4.49527 18.1234 3.84995 19.2391C3.69389 19.5049 3.61082 19.8073 3.60916 20.1156C3.60749 20.4238 3.68729 20.7271 3.84048 20.9946C3.99367 21.2621 4.21481 21.4844 4.48152 21.639C4.74823 21.7936 5.05105 21.875 5.35933 21.875H9.62495C9.62495 23.0353 10.0859 24.1481 10.9064 24.9686C11.7268 25.7891 12.8396 26.25 14 26.25C15.1603 26.25 16.2731 25.7891 17.0935 24.9686C17.914 24.1481 18.375 23.0353 18.375 21.875H22.6406C22.9488 21.877 23.252 21.797 23.5191 21.6432C23.7863 21.4895 24.0078 21.2675 24.1609 21C24.3127 20.731 24.3916 20.427 24.3897 20.1181C24.3878 19.8092 24.3051 19.5062 24.15 19.2391ZM14 24.5C13.3046 24.4971 12.6386 24.2196 12.147 23.728C11.6553 23.2363 11.3778 22.5703 11.375 21.875H16.625C16.6221 22.5703 16.3446 23.2363 15.8529 23.728C15.3613 24.2196 14.6953 24.4971 14 24.5Z" fill="white"/>
</svg>
