<svg width="32" height="32" viewBox="0 0 32 32" fill="none" xmlns="http://www.w3.org/2000/svg">
<path d="M24.9993 5.41239V25.9999C24.9993 26.2651 24.8939 26.5195 24.7064 26.707C24.5189 26.8945 24.2645 26.9999 23.9993 26.9999H3.41178C3.21349 26.9996 3.01977 26.9403 2.85525 26.8296C2.69073 26.7189 2.56283 26.5618 2.4878 26.3783C2.41277 26.1947 2.39401 25.993 2.43389 25.7988C2.47377 25.6045 2.5705 25.4265 2.71178 25.2874L23.2868 4.71239C23.4259 4.57111 23.6039 4.47438 23.7982 4.4345C23.9924 4.39462 24.1941 4.41338 24.3777 4.48841C24.5612 4.56344 24.7183 4.69134 24.829 4.85586C24.9397 5.02039 24.999 5.2141 24.9993 5.41239Z" stroke="white" stroke-width="2" stroke-linecap="round" stroke-linejoin="round"/>
<path d="M14.9993 13V27" stroke="white" stroke-width="2" stroke-linecap="round" stroke-linejoin="round"/>
</svg>
