<svg width="22" height="22" viewBox="0 0 22 22" fill="none" xmlns="http://www.w3.org/2000/svg">
<path d="M21.2524 14.5923L18.3305 4.86417C18.2744 4.66742 18.1739 4.48613 18.0369 4.33419C17.8998 4.18225 17.7298 4.0637 17.5399 3.98761H17.4883L17.5399 3.97042C16.5812 3.58627 15.5885 3.2928 14.575 3.09386C14.4865 3.07635 14.3953 3.07646 14.3067 3.0942C14.2182 3.11193 14.134 3.14694 14.059 3.19721C13.984 3.24749 13.9196 3.31205 13.8695 3.38722C13.8195 3.46238 13.7847 3.54667 13.7672 3.63527C13.7484 3.72334 13.7474 3.81428 13.764 3.90278C13.7807 3.99128 13.8149 4.07558 13.8645 4.15076C13.914 4.22594 13.9781 4.2905 14.0529 4.34069C14.1277 4.39088 14.2117 4.42568 14.3 4.44308C14.6868 4.52042 15.0649 4.61495 15.4344 4.71808C15.5705 4.78873 15.6791 4.90285 15.7429 5.04231C15.8067 5.18176 15.822 5.33854 15.7865 5.48771C15.7509 5.63688 15.6665 5.76988 15.5466 5.86556C15.4268 5.96123 15.2784 6.01409 15.125 6.01573H15.0563C13.732 5.67036 12.3687 5.49706 11 5.50011C9.66359 5.49612 8.33215 5.66364 7.03833 5.99855C6.87369 6.04199 6.69879 6.02279 6.5475 5.94466C6.39621 5.86654 6.27929 5.73505 6.21939 5.57567C6.15948 5.41628 6.16086 5.24033 6.22324 5.0819C6.28563 4.92347 6.40459 4.79383 6.55708 4.71808H6.56567C6.9352 4.61495 7.31333 4.52042 7.70005 4.44308C7.78865 4.4256 7.87294 4.39084 7.9481 4.34078C8.02326 4.29072 8.08782 4.22635 8.1381 4.15133C8.18838 4.07631 8.22338 3.99213 8.24112 3.90358C8.25885 3.81503 8.25897 3.72386 8.24146 3.63527C8.20411 3.45744 8.09871 3.30127 7.94777 3.20011C7.79683 3.09895 7.61232 3.06082 7.43364 3.09386C6.41651 3.29725 5.42092 3.59651 4.46021 3.98761C4.27027 4.0637 4.10026 4.18225 3.96322 4.33419C3.82618 4.48613 3.72573 4.66742 3.66958 4.86417L0.747705 14.5923C0.671905 14.8466 0.67133 15.1175 0.746051 15.3721C0.820771 15.6268 0.967593 15.8544 1.1688 16.0275C1.24785 16.1036 1.33105 16.1753 1.41802 16.2423H1.42661C2.8188 17.3767 4.64927 18.2446 6.71177 18.7431C6.76455 18.76 6.81962 18.7687 6.87505 18.7689C7.04503 18.7716 7.20998 18.7112 7.33805 18.5994C7.46612 18.4876 7.54823 18.3323 7.56853 18.1635C7.58882 17.9947 7.54587 17.8244 7.44795 17.6855C7.35003 17.5465 7.2041 17.4487 7.03833 17.411C6.11111 17.1871 5.20966 16.8674 4.34849 16.4571C4.23062 16.3467 4.1554 16.1983 4.13603 16.0379C4.11666 15.8776 4.15436 15.7155 4.24253 15.5802C4.33071 15.4448 4.46372 15.3449 4.61823 15.2978C4.77275 15.2507 4.9389 15.2596 5.08755 15.3228C6.72036 16.0446 8.77427 16.5001 11 16.5001C13.2258 16.5001 15.2797 16.0446 16.9125 15.3228C17.0612 15.2596 17.2274 15.2507 17.3819 15.2978C17.5364 15.3449 17.6694 15.4448 17.7576 15.5802C17.8457 15.7155 17.8834 15.8776 17.8641 16.0379C17.8447 16.1983 17.7695 16.3467 17.6516 16.4571C16.7904 16.8674 15.889 17.1871 14.9618 17.411C14.796 17.4487 14.6501 17.5465 14.5521 17.6855C14.4542 17.8244 14.4113 17.9947 14.4316 18.1635C14.4519 18.3323 14.534 18.4876 14.6621 18.5994C14.7901 18.7112 14.9551 18.7716 15.125 18.7689C15.1805 18.7687 15.2355 18.76 15.2883 18.7431C17.3508 18.2446 19.1813 17.3767 20.5735 16.2423H20.5821C20.669 16.1753 20.7522 16.1036 20.8313 16.0275C21.0325 15.8544 21.1793 15.6268 21.254 15.3721C21.3288 15.1175 21.3282 14.8466 21.2524 14.5923ZM8.25005 13.4064C8.04609 13.4064 7.84671 13.3459 7.67712 13.2326C7.50753 13.1192 7.37535 12.9582 7.2973 12.7698C7.21924 12.5813 7.19882 12.374 7.23861 12.1739C7.2784 11.9739 7.37662 11.7901 7.52084 11.6459C7.66507 11.5017 7.84882 11.4035 8.04886 11.3637C8.2489 11.3239 8.45625 11.3443 8.64469 11.4224C8.83313 11.5004 8.99419 11.6326 9.1075 11.8022C9.22082 11.9718 9.2813 12.1711 9.2813 12.3751C9.2813 12.6486 9.17265 12.9109 8.97925 13.1043C8.78586 13.2977 8.52355 13.4064 8.25005 13.4064ZM13.75 13.4064C13.5461 13.4064 13.3467 13.3459 13.1771 13.2326C13.0075 13.1192 12.8754 12.9582 12.7973 12.7698C12.7192 12.5813 12.6988 12.374 12.7386 12.1739C12.7784 11.9739 12.8766 11.7901 13.0208 11.6459C13.1651 11.5017 13.3488 11.4035 13.5489 11.3637C13.7489 11.3239 13.9563 11.3443 14.1447 11.4224C14.3331 11.5004 14.4942 11.6326 14.6075 11.8022C14.7208 11.9718 14.7813 12.1711 14.7813 12.3751C14.7813 12.6486 14.6726 12.9109 14.4793 13.1043C14.2859 13.2977 14.0236 13.4064 13.75 13.4064Z" fill="#666666"/>
</svg>
