<svg width="25" height="25" viewBox="0 0 25 25" fill="none" xmlns="http://www.w3.org/2000/svg">
<path d="M4.11157 4.6875H20.8889C21.0405 4.68755 21.1887 4.73167 21.3156 4.81448C21.4425 4.8973 21.5426 5.01524 21.6037 5.15393C21.6647 5.29262 21.6842 5.44608 21.6595 5.59561C21.6349 5.74514 21.5674 5.88428 21.4651 5.99609L15.0491 13.0566C14.9155 13.1996 14.8421 13.3884 14.844 13.584V19.1113C14.8452 19.2412 14.8136 19.3692 14.7521 19.4836C14.6907 19.5979 14.6014 19.695 14.4924 19.7656L11.3674 21.8457C11.2502 21.9229 11.1143 21.9671 10.9741 21.9737C10.8339 21.9802 10.6945 21.9489 10.5706 21.8829C10.4467 21.817 10.3429 21.7188 10.27 21.5989C10.1971 21.4789 10.1579 21.3415 10.1565 21.2012V13.584C10.1584 13.3884 10.0849 13.1996 9.95141 13.0566L3.5354 5.99609C3.43311 5.88428 3.36554 5.74514 3.34094 5.59561C3.31633 5.44608 3.33574 5.29262 3.39681 5.15393C3.45787 5.01524 3.55796 4.8973 3.68486 4.81448C3.81177 4.73167 3.96003 4.68755 4.11157 4.6875V4.6875Z" stroke="white" stroke-width="2" stroke-linecap="round" stroke-linejoin="round"/>
</svg>
