<?xml version="1.0" encoding="UTF-8"?>
<svg version="1.1" xmlns="http://www.w3.org/2000/svg" width="512" height="512">
<path d="M0 0 C1.61843106 -0.0046143 3.23685793 -0.01097075 4.85527611 -0.01890898 C9.28290851 -0.0355529 13.71019449 -0.0273785 18.13782787 -0.0149641 C22.92046095 -0.00589566 27.7030354 -0.01989223 32.48565674 -0.03088379 C41.84703506 -0.04865444 51.20828497 -0.04483549 60.56966829 -0.03323323 C68.17900425 -0.02419347 75.78830426 -0.02297726 83.39764404 -0.02732849 C84.48134352 -0.02794142 85.565043 -0.02855436 86.68158185 -0.02918586 C88.88321321 -0.03046478 91.08484456 -0.03176164 93.2864759 -0.03307623 C113.92296475 -0.04447777 134.55938248 -0.03137499 155.19585967 -0.00987476 C172.89639648 0.00799582 190.59682836 0.00489159 208.29736328 -0.0135498 C228.86086314 -0.03496402 249.42430069 -0.04337917 269.98781013 -0.03110075 C272.1812655 -0.02982658 274.37472088 -0.02856909 276.56817627 -0.02732849 C278.18693761 -0.02640284 278.18693761 -0.02640284 279.8384012 -0.02545848 C287.43710285 -0.02200725 295.03576493 -0.02782907 302.63446045 -0.0372467 C311.89688616 -0.04847417 321.1591763 -0.04541086 330.42158651 -0.02412373 C335.14589237 -0.01362343 339.86997233 -0.00947412 344.59427643 -0.02272034 C348.92208099 -0.03467116 353.24945104 -0.02803751 357.57721639 -0.00681013 C359.13966483 -0.00235544 360.70215026 -0.00458479 362.26457477 -0.01431328 C380.76107674 -0.1206151 380.76107674 -0.1206151 387.91008949 6.21615553 C393.16821578 11.78839583 394.41302994 17.54215984 394.23291016 25.05090332 C393.62101458 31.06468957 390.61740352 36.62658909 385.98291016 40.50793457 C377.82974919 45.33602465 369.12568233 45.07290336 359.96582031 45.01586914 C358.34738925 45.02048344 356.72896238 45.02683989 355.1105442 45.03477812 C350.6829118 45.05142204 346.25562582 45.04324764 341.82799244 45.03083324 C337.04535937 45.0217648 332.26278492 45.03576138 327.48016357 45.04675293 C318.11878525 45.06452358 308.75753534 45.06070463 299.39615202 45.04910237 C291.78681607 45.04006261 284.17751605 45.0388464 276.56817627 45.04319763 C275.48447679 45.04381056 274.40077731 45.0444235 273.28423846 45.045055 C271.0826071 45.04633393 268.88097575 45.04763078 266.67934442 45.04894537 C246.04285556 45.06034691 225.40643783 45.04724413 204.76996064 45.0257439 C187.06942383 45.00787332 169.36899195 45.01097755 151.66845703 45.02941895 C131.10495718 45.05083316 110.54151963 45.05924831 89.97801018 45.04696989 C87.78455481 45.04569572 85.59109943 45.04443823 83.39764404 45.04319763 C81.7788827 45.04227198 81.7788827 45.04227198 80.12741911 45.04132763 C72.52871746 45.03787639 64.93005539 45.04369821 57.33135986 45.05311584 C48.06893415 45.06434331 38.80664401 45.06128 29.5442338 45.03999287 C24.81992794 45.02949257 20.09584798 45.02534326 15.37154388 45.03858948 C11.04373932 45.0505403 6.71636927 45.04390665 2.38860393 45.02267927 C0.82615548 45.01822459 -0.73632995 45.02045393 -2.29875445 45.03018242 C-20.79525643 45.13648424 -20.79525643 45.13648424 -27.94426918 38.79971361 C-33.20239546 33.22747331 -34.44720963 27.4737093 -34.26708984 19.96496582 C-33.65519426 13.95117957 -30.65158321 8.38928005 -26.01708984 4.50793457 C-17.86392887 -0.32015551 -9.15986202 -0.05703422 0 0 Z " fill="#FFFFFF" transform="translate(76.01708984375,361.4920654296875)"/>
<path d="M0 0 C1.61843106 -0.0046143 3.23685793 -0.01097075 4.85527611 -0.01890898 C9.28290851 -0.0355529 13.71019449 -0.0273785 18.13782787 -0.0149641 C22.92046095 -0.00589566 27.7030354 -0.01989223 32.48565674 -0.03088379 C41.84703506 -0.04865444 51.20828497 -0.04483549 60.56966829 -0.03323323 C68.17900425 -0.02419347 75.78830426 -0.02297726 83.39764404 -0.02732849 C84.48134352 -0.02794142 85.565043 -0.02855436 86.68158185 -0.02918586 C88.88321321 -0.03046478 91.08484456 -0.03176164 93.2864759 -0.03307623 C113.92296475 -0.04447777 134.55938248 -0.03137499 155.19585967 -0.00987476 C172.89639648 0.00799582 190.59682836 0.00489159 208.29736328 -0.0135498 C228.86086314 -0.03496402 249.42430069 -0.04337917 269.98781013 -0.03110075 C272.1812655 -0.02982658 274.37472088 -0.02856909 276.56817627 -0.02732849 C278.18693761 -0.02640284 278.18693761 -0.02640284 279.8384012 -0.02545848 C287.43710285 -0.02200725 295.03576493 -0.02782907 302.63446045 -0.0372467 C311.89688616 -0.04847417 321.1591763 -0.04541086 330.42158651 -0.02412373 C335.14589237 -0.01362343 339.86997233 -0.00947412 344.59427643 -0.02272034 C348.92208099 -0.03467116 353.24945104 -0.02803751 357.57721639 -0.00681013 C359.13966483 -0.00235544 360.70215026 -0.00458479 362.26457477 -0.01431328 C380.76107674 -0.1206151 380.76107674 -0.1206151 387.91008949 6.21615553 C393.16821578 11.78839583 394.41302994 17.54215984 394.23291016 25.05090332 C393.62101458 31.06468957 390.61740352 36.62658909 385.98291016 40.50793457 C377.82974919 45.33602465 369.12568233 45.07290336 359.96582031 45.01586914 C358.34738925 45.02048344 356.72896238 45.02683989 355.1105442 45.03477812 C350.6829118 45.05142204 346.25562582 45.04324764 341.82799244 45.03083324 C337.04535937 45.0217648 332.26278492 45.03576138 327.48016357 45.04675293 C318.11878525 45.06452358 308.75753534 45.06070463 299.39615202 45.04910237 C291.78681607 45.04006261 284.17751605 45.0388464 276.56817627 45.04319763 C275.48447679 45.04381056 274.40077731 45.0444235 273.28423846 45.045055 C271.0826071 45.04633393 268.88097575 45.04763078 266.67934442 45.04894537 C246.04285556 45.06034691 225.40643783 45.04724413 204.76996064 45.0257439 C187.06942383 45.00787332 169.36899195 45.01097755 151.66845703 45.02941895 C131.10495718 45.05083316 110.54151963 45.05924831 89.97801018 45.04696989 C87.78455481 45.04569572 85.59109943 45.04443823 83.39764404 45.04319763 C81.7788827 45.04227198 81.7788827 45.04227198 80.12741911 45.04132763 C72.52871746 45.03787639 64.93005539 45.04369821 57.33135986 45.05311584 C48.06893415 45.06434331 38.80664401 45.06128 29.5442338 45.03999287 C24.81992794 45.02949257 20.09584798 45.02534326 15.37154388 45.03858948 C11.04373932 45.0505403 6.71636927 45.04390665 2.38860393 45.02267927 C0.82615548 45.01822459 -0.73632995 45.02045393 -2.29875445 45.03018242 C-20.79525643 45.13648424 -20.79525643 45.13648424 -27.94426918 38.79971361 C-33.20239546 33.22747331 -34.44720963 27.4737093 -34.26708984 19.96496582 C-33.65519426 13.95117957 -30.65158321 8.38928005 -26.01708984 4.50793457 C-17.86392887 -0.32015551 -9.15986202 -0.05703422 0 0 Z " fill="#FFFFFF" transform="translate(76.01708984375,233.4920654296875)"/>
<path d="M0 0 C1.61843106 -0.0046143 3.23685793 -0.01097075 4.85527611 -0.01890898 C9.28290851 -0.0355529 13.71019449 -0.0273785 18.13782787 -0.0149641 C22.92046095 -0.00589566 27.7030354 -0.01989223 32.48565674 -0.03088379 C41.84703506 -0.04865444 51.20828497 -0.04483549 60.56966829 -0.03323323 C68.17900425 -0.02419347 75.78830426 -0.02297726 83.39764404 -0.02732849 C84.48134352 -0.02794142 85.565043 -0.02855436 86.68158185 -0.02918586 C88.88321321 -0.03046478 91.08484456 -0.03176164 93.2864759 -0.03307623 C113.92296475 -0.04447777 134.55938248 -0.03137499 155.19585967 -0.00987476 C172.89639648 0.00799582 190.59682836 0.00489159 208.29736328 -0.0135498 C228.86086314 -0.03496402 249.42430069 -0.04337917 269.98781013 -0.03110075 C272.1812655 -0.02982658 274.37472088 -0.02856909 276.56817627 -0.02732849 C278.18693761 -0.02640284 278.18693761 -0.02640284 279.8384012 -0.02545848 C287.43710285 -0.02200725 295.03576493 -0.02782907 302.63446045 -0.0372467 C311.89688616 -0.04847417 321.1591763 -0.04541086 330.42158651 -0.02412373 C335.14589237 -0.01362343 339.86997233 -0.00947412 344.59427643 -0.02272034 C348.92208099 -0.03467116 353.24945104 -0.02803751 357.57721639 -0.00681013 C359.13966483 -0.00235544 360.70215026 -0.00458479 362.26457477 -0.01431328 C380.76107674 -0.1206151 380.76107674 -0.1206151 387.91008949 6.21615553 C393.16821578 11.78839583 394.41302994 17.54215984 394.23291016 25.05090332 C393.62101458 31.06468957 390.61740352 36.62658909 385.98291016 40.50793457 C377.82974919 45.33602465 369.12568233 45.07290336 359.96582031 45.01586914 C358.34738925 45.02048344 356.72896238 45.02683989 355.1105442 45.03477812 C350.6829118 45.05142204 346.25562582 45.04324764 341.82799244 45.03083324 C337.04535937 45.0217648 332.26278492 45.03576138 327.48016357 45.04675293 C318.11878525 45.06452358 308.75753534 45.06070463 299.39615202 45.04910237 C291.78681607 45.04006261 284.17751605 45.0388464 276.56817627 45.04319763 C275.48447679 45.04381056 274.40077731 45.0444235 273.28423846 45.045055 C271.0826071 45.04633393 268.88097575 45.04763078 266.67934442 45.04894537 C246.04285556 45.06034691 225.40643783 45.04724413 204.76996064 45.0257439 C187.06942383 45.00787332 169.36899195 45.01097755 151.66845703 45.02941895 C131.10495718 45.05083316 110.54151963 45.05924831 89.97801018 45.04696989 C87.78455481 45.04569572 85.59109943 45.04443823 83.39764404 45.04319763 C81.7788827 45.04227198 81.7788827 45.04227198 80.12741911 45.04132763 C72.52871746 45.03787639 64.93005539 45.04369821 57.33135986 45.05311584 C48.06893415 45.06434331 38.80664401 45.06128 29.5442338 45.03999287 C24.81992794 45.02949257 20.09584798 45.02534326 15.37154388 45.03858948 C11.04373932 45.0505403 6.71636927 45.04390665 2.38860393 45.02267927 C0.82615548 45.01822459 -0.73632995 45.02045393 -2.29875445 45.03018242 C-20.79525643 45.13648424 -20.79525643 45.13648424 -27.94426918 38.79971361 C-33.20239546 33.22747331 -34.44720963 27.4737093 -34.26708984 19.96496582 C-33.65519426 13.95117957 -30.65158321 8.38928005 -26.01708984 4.50793457 C-17.86392887 -0.32015551 -9.15986202 -0.05703422 0 0 Z " fill="#FFFFFF" transform="translate(76.01708984375,105.4920654296875)"/>
</svg>
