<svg width="22" height="22" viewBox="0 0 22 22" fill="none" xmlns="http://www.w3.org/2000/svg">
<path d="M11 13.75C12.5188 13.75 13.75 12.5188 13.75 11C13.75 9.48122 12.5188 8.25 11 8.25C9.48122 8.25 8.25 9.48122 8.25 11C8.25 12.5188 9.48122 13.75 11 13.75Z" fill="#666666"/>
<path d="M14.7812 2.40625H7.21875C5.9424 2.40625 4.71832 2.91328 3.8158 3.8158C2.91328 4.71832 2.40625 5.9424 2.40625 7.21875V14.7812C2.40625 16.0576 2.91328 17.2817 3.8158 18.1842C4.71832 19.0867 5.9424 19.5938 7.21875 19.5938H14.7812C16.0576 19.5938 17.2817 19.0867 18.1842 18.1842C19.0867 17.2817 19.5938 16.0576 19.5938 14.7812V7.21875C19.5938 5.9424 19.0867 4.71832 18.1842 3.8158C17.2817 2.91328 16.0576 2.40625 14.7812 2.40625ZM11 15.125C10.1842 15.125 9.38663 14.8831 8.70827 14.4298C8.02992 13.9766 7.50121 13.3323 7.189 12.5786C6.87679 11.8248 6.7951 10.9954 6.95426 10.1953C7.11343 9.39508 7.50629 8.66008 8.08318 8.08318C8.66008 7.50629 9.39508 7.11343 10.1953 6.95426C10.9954 6.7951 11.8248 6.87679 12.5786 7.189C13.3323 7.50121 13.9766 8.02992 14.4298 8.70827C14.8831 9.38663 15.125 10.1842 15.125 11C15.125 12.094 14.6904 13.1432 13.9168 13.9168C13.1432 14.6904 12.094 15.125 11 15.125ZM15.4688 7.5625C15.2648 7.5625 15.0654 7.50202 14.8958 7.3887C14.7262 7.27539 14.5941 7.11433 14.516 6.92589C14.4379 6.73746 14.4175 6.53011 14.4573 6.33006C14.4971 6.13002 14.5953 5.94627 14.7395 5.80205C14.8838 5.65782 15.0675 5.55961 15.2676 5.51981C15.4676 5.48002 15.675 5.50045 15.8634 5.5785C16.0518 5.65655 16.2129 5.78873 16.3262 5.95832C16.4395 6.12791 16.5 6.32729 16.5 6.53125C16.5 6.80475 16.3913 7.06706 16.198 7.26045C16.0046 7.45385 15.7423 7.5625 15.4688 7.5625Z" fill="#666666"/>
</svg>
