<svg width="22" height="22" viewBox="0 0 22 22" fill="none" xmlns="http://www.w3.org/2000/svg">
<path d="M18.2188 2.40625H3.78125C3.41658 2.40625 3.06684 2.55112 2.80898 2.80898C2.55112 3.06684 2.40625 3.41658 2.40625 3.78125V18.2188C2.40625 18.5834 2.55112 18.9332 2.80898 19.191C3.06684 19.4489 3.41658 19.5938 3.78125 19.5938H18.2188C18.5834 19.5938 18.9332 19.4489 19.191 19.191C19.4489 18.9332 19.5938 18.5834 19.5938 18.2188V3.78125C19.5938 3.41658 19.4489 3.06684 19.191 2.80898C18.9332 2.55112 18.5834 2.40625 18.2188 2.40625ZM8.25 15.125C8.25 15.3073 8.17757 15.4822 8.04864 15.6111C7.9197 15.7401 7.74484 15.8125 7.5625 15.8125C7.38016 15.8125 7.2053 15.7401 7.07636 15.6111C6.94743 15.4822 6.875 15.3073 6.875 15.125V9.625C6.875 9.44266 6.94743 9.2678 7.07636 9.13886C7.2053 9.00993 7.38016 8.9375 7.5625 8.9375C7.74484 8.9375 7.9197 9.00993 8.04864 9.13886C8.17757 9.2678 8.25 9.44266 8.25 9.625V15.125ZM7.5625 7.90625C7.35854 7.90625 7.15916 7.84577 6.98957 7.73245C6.81998 7.61914 6.6878 7.45808 6.60975 7.26964C6.5317 7.08121 6.51127 6.87386 6.55106 6.67381C6.59086 6.47377 6.68907 6.29002 6.8333 6.1458C6.97752 6.00157 7.16127 5.90336 7.36131 5.86356C7.56136 5.82377 7.76871 5.8442 7.95714 5.92225C8.14558 6.0003 8.30664 6.13248 8.41995 6.30207C8.53327 6.47166 8.59375 6.67104 8.59375 6.875C8.59375 7.1485 8.4851 7.41081 8.2917 7.6042C8.09831 7.7976 7.836 7.90625 7.5625 7.90625ZM15.8125 15.125C15.8125 15.3073 15.7401 15.4822 15.6111 15.6111C15.4822 15.7401 15.3073 15.8125 15.125 15.8125C14.9427 15.8125 14.7678 15.7401 14.6389 15.6111C14.5099 15.4822 14.4375 15.3073 14.4375 15.125V12.0312C14.4375 11.5754 14.2564 11.1382 13.9341 10.8159C13.6118 10.4936 13.1746 10.3125 12.7188 10.3125C12.2629 10.3125 11.8257 10.4936 11.5034 10.8159C11.1811 11.1382 11 11.5754 11 12.0312V15.125C11 15.3073 10.9276 15.4822 10.7986 15.6111C10.6697 15.7401 10.4948 15.8125 10.3125 15.8125C10.1302 15.8125 9.9553 15.7401 9.82636 15.6111C9.69743 15.4822 9.625 15.3073 9.625 15.125V9.625C9.62452 9.45581 9.68646 9.29238 9.79894 9.16599C9.91143 9.03961 10.0666 8.95914 10.2347 8.93998C10.4028 8.92083 10.5721 8.96434 10.7101 9.06219C10.8481 9.16004 10.9452 9.30535 10.9828 9.47031C11.448 9.15496 11.9903 8.97229 12.5515 8.94191C13.1127 8.91153 13.6715 9.03458 14.1681 9.29786C14.6646 9.56114 15.08 9.9547 15.3697 10.4363C15.6595 10.9178 15.8125 11.4692 15.8125 12.0312V15.125Z" fill="#666666"/>
</svg>
