<?xml version="1.0" standalone="no"?>
<!DOCTYPE svg PUBLIC "-//W3C//DTD SVG 20010904//EN"
 "http://www.w3.org/TR/2001/REC-SVG-20010904/DTD/svg10.dtd">
<svg version="1.0" xmlns="http://www.w3.org/2000/svg"
 width="491.000000pt" height="508.000000pt" viewBox="0 0 491.000000 508.000000"
 preserveAspectRatio="xMidYMid meet">

<g transform="translate(0.000000,508.000000) scale(0.100000,-0.100000)"
fill="#000000" stroke="none">
<path d="M1672 4821 c-56 -10 -94 -39 -110 -85 -9 -29 -12 -195 -10 -729 l3
-692 125 -3 c69 -2 140 0 158 3 l32 6 0 594 0 595 1053 -1 c578 0 1061 -4
1072 -8 25 -10 56 9 -435 -269 -223 -126 -415 -239 -426 -251 -12 -12 -25 -34
-30 -49 -4 -15 -10 -621 -13 -1347 l-6 -1320 -607 -3 -608 -2 0 459 0 459
-122 7 c-68 4 -139 5 -158 3 l-35 -4 -3 -572 -2 -571 32 -37 c62 -70 27 -67
798 -72 503 -3 697 -7 702 -16 4 -6 8 -161 8 -345 l0 -334 26 -34 c29 -38 91
-73 129 -73 40 0 128 46 710 375 61 34 160 90 220 125 61 35 144 82 185 105
41 23 98 55 125 70 28 16 97 54 155 86 133 73 158 93 182 145 18 41 18 103 16
1861 -3 1747 -4 1819 -22 1854 -26 51 -48 60 -160 70 -121 10 -2922 10 -2984
0z"/>
<path d="M1045 3505 c-27 -14 -264 -180 -390 -275 -27 -20 -156 -116 -285
-212 -304 -227 -303 -227 -303 -266 0 -52 1 -53 488 -407 481 -350 526 -377
585 -345 32 17 40 76 40 303 l0 217 476 0 c472 0 477 0 521 22 88 44 134 120
132 218 -1 97 -62 180 -145 198 -27 6 -258 14 -515 18 l-467 7 -4 236 c-2 159
-7 243 -16 257 -6 12 -26 27 -43 33 -39 14 -38 14 -74 -4z"/>
</g>
</svg>
