<svg width="25" height="25" viewBox="0 0 25 25" fill="none" xmlns="http://www.w3.org/2000/svg">
<path d="M3.125 10.1562H7.8125V20.3125H3.125C2.9178 20.3125 2.71909 20.2302 2.57257 20.0837C2.42606 19.9372 2.34375 19.7385 2.34375 19.5312V10.9375C2.34375 10.7303 2.42606 10.5316 2.57257 10.3851C2.71909 10.2386 2.9178 10.1562 3.125 10.1562V10.1562Z" stroke="white" stroke-width="2" stroke-linecap="round" stroke-linejoin="round"/>
<path d="M7.8125 10.1562L11.7188 2.34375C12.5476 2.34375 13.3424 2.67299 13.9285 3.25904C14.5145 3.84509 14.8438 4.63995 14.8438 5.46875V7.8125H20.8887C21.1102 7.81195 21.3293 7.85882 21.5313 7.94996C21.7332 8.04111 21.9133 8.17441 22.0595 8.34091C22.2056 8.50742 22.3144 8.70327 22.3786 8.91532C22.4428 9.12737 22.4609 9.3507 22.4316 9.57031L21.2598 18.9453C21.2124 19.3217 21.0297 19.6679 20.7457 19.9195C20.4618 20.171 20.0961 20.3107 19.7168 20.3125H7.8125" stroke="white" stroke-width="2" stroke-linecap="round" stroke-linejoin="round"/>
</svg>
