<svg width="50" height="50" viewBox="0 0 50 50" fill="none" xmlns="http://www.w3.org/2000/svg">
<path d="M25 32.0312C29.7462 32.0312 33.5938 28.1837 33.5938 23.4375C33.5938 18.6913 29.7462 14.8438 25 14.8438C20.2538 14.8438 16.4062 18.6913 16.4062 23.4375C16.4062 28.1837 20.2538 32.0312 25 32.0312Z" fill="white"/>
<path d="M25 4.6875C20.9826 4.6875 17.0554 5.87881 13.715 8.11077C10.3746 10.3427 7.77111 13.5151 6.23371 17.2267C4.6963 20.9384 4.29405 25.0225 5.07781 28.9628C5.86157 32.903 7.79615 36.5224 10.6369 39.3631C13.4777 42.2039 17.097 44.1384 21.0372 44.9222C24.9775 45.706 29.0616 45.3037 32.7733 43.7663C36.4849 42.2289 39.6573 39.6254 41.8892 36.285C44.1212 32.9446 45.3125 29.0174 45.3125 25C45.3022 19.616 43.1588 14.4554 39.3517 10.6483C35.5446 6.8412 30.384 4.69782 25 4.6875ZM37.8516 36.4062C36.5868 34.5919 34.9569 33.0619 33.0664 31.9141C30.8958 33.9936 28.006 35.1545 25 35.1545C21.994 35.1545 19.1042 33.9936 16.9336 31.9141C15.0431 33.0619 13.4133 34.5919 12.1484 36.4062C9.94879 33.9292 8.51182 30.8694 8.01048 27.5948C7.50913 24.3203 7.96478 20.9706 9.32257 17.9489C10.6804 14.9273 12.8824 12.3624 15.6638 10.5629C18.4452 8.76348 21.6873 7.80615 25 7.80615C28.3127 7.80615 31.5548 8.76348 34.3362 10.5629C37.1176 12.3624 39.3197 14.9273 40.6774 17.9489C42.0352 20.9706 42.4909 24.3203 41.9895 27.5948C41.4882 30.8694 40.0512 33.9292 37.8516 36.4062Z" fill="white"/>
</svg>
